<svg width="496" height="5449" viewBox="0 0 496 5449" fill="none" xmlns="http://www.w3.org/2000/svg">
<path opacity="0.2" d="M581 2137.77H253.727V2026.12H315.943V2022.71C295.489 2015.89 279.295 2004.25 267.364 1987.77C255.432 1971.29 249.466 1951.69 249.466 1928.96C249.466 1905.95 255.574 1886.13 267.79 1869.52C279.864 1852.9 295.915 1842.88 315.943 1839.47V1836.06C295.915 1830.52 279.864 1818.73 267.79 1800.69C255.574 1782.65 249.466 1761.49 249.466 1737.2C249.466 1705.81 259.551 1680.38 279.722 1660.92C299.892 1641.32 326.739 1631.52 360.261 1631.52H581V1749.13H390.091C375.744 1749.13 364.523 1752.75 356.426 1760C348.187 1767.24 344.068 1776.97 344.068 1789.19C344.068 1801.26 348.187 1810.85 356.426 1817.95C364.523 1824.91 375.744 1828.39 390.091 1828.39H581V1940.89H390.091C375.744 1940.89 364.523 1944.52 356.426 1951.76C348.187 1959 344.068 1968.73 344.068 1980.95C344.068 1989.05 345.915 1996.01 349.608 2001.83C353.301 2007.65 358.628 2012.2 365.588 2015.47C372.406 2018.59 380.574 2020.15 390.091 2020.15H581V2137.77ZM586.966 1416.69C586.966 1451.64 580.29 1481.75 566.938 1507.03C553.443 1532.18 534.125 1551.56 508.983 1565.2C483.699 1578.69 453.443 1585.44 418.216 1585.44C384.409 1585.44 354.864 1578.62 329.58 1564.99C304.295 1551.35 284.622 1532.1 270.56 1507.25C256.497 1482.39 249.466 1453.06 249.466 1419.25C249.466 1394.53 253.301 1372.16 260.972 1352.13C268.642 1332.1 279.793 1314.99 294.423 1300.78C308.912 1286.58 326.526 1275.64 347.264 1267.97C368.003 1260.3 391.369 1256.46 417.364 1256.46H444.636V1548.79H379.864V1364.7C370.489 1364.85 362.25 1367.26 355.148 1371.95C347.903 1376.49 342.293 1382.67 338.315 1390.48C334.196 1398.16 332.136 1406.89 332.136 1416.69C332.136 1426.21 334.196 1434.94 338.315 1442.9C342.293 1450.85 347.832 1457.25 354.935 1462.08C362.037 1466.76 370.347 1469.25 379.864 1469.53H449.75C460.261 1469.53 469.636 1467.33 477.875 1462.93C486.114 1458.52 492.577 1452.2 497.264 1443.96C501.952 1435.73 504.295 1425.78 504.295 1414.14C504.295 1406.04 503.159 1398.65 500.886 1391.98C498.614 1385.16 495.347 1379.33 491.085 1374.5C486.682 1369.68 481.426 1366.12 475.318 1363.85V1256.46C498.045 1260.16 517.79 1268.89 534.551 1282.67C551.17 1296.45 564.097 1314.7 573.33 1337.43C582.42 1360.02 586.966 1386.44 586.966 1416.69ZM253.727 1110.57L355.148 1062.84L253.727 1012.56L253.727 895.794L417.364 983.578L581 891.532V1007.44L477.023 1062.84L581 1116.53V1234.15L417.364 1141.25L253.727 1228.18V1110.57ZM581 853.979H253.727V736.365H581V853.979ZM219.636 795.172C219.636 811.081 214.381 824.718 203.869 836.081C193.358 847.445 180.716 853.127 165.943 853.127C151.17 853.127 138.528 847.445 128.017 836.081C117.506 824.718 112.25 811.081 112.25 795.172C112.25 779.121 117.506 765.485 128.017 754.263C138.528 742.9 151.17 737.218 165.943 737.218C180.716 737.218 193.358 742.9 203.869 754.263C214.381 765.485 219.636 779.121 219.636 795.172ZM586.966 518.77C586.966 554.281 579.935 584.679 565.872 609.963C551.668 635.247 531.923 654.636 506.639 668.13C481.213 681.625 451.739 688.372 418.216 688.372C384.693 688.372 355.29 681.625 330.006 668.13C304.58 654.636 284.835 635.247 270.773 609.963C256.568 584.679 249.466 554.281 249.466 518.77C249.466 486.667 255.29 458.897 266.938 435.46C278.443 411.88 294.778 393.627 315.943 380.701C336.966 367.775 361.682 361.241 390.091 361.099V470.19C372.903 471.752 359.835 476.724 350.886 485.105C341.795 493.343 337.25 503.997 337.25 517.065C337.25 527.292 340.233 536.241 346.199 543.912C352.023 551.582 360.901 557.548 372.832 561.809C384.622 566.071 399.466 568.201 417.364 568.201C435.261 568.201 450.176 566.071 462.108 561.809C473.898 557.548 482.776 551.582 488.741 543.912C494.565 536.241 497.477 527.292 497.477 517.065C497.477 508.4 495.489 500.73 491.511 494.054C487.392 487.377 481.426 481.98 473.614 477.86C465.659 473.599 456 471.042 444.636 470.19V361.099C473.472 361.525 498.614 368.13 520.063 380.914C541.369 393.698 557.847 411.809 569.494 435.247C581.142 458.542 586.966 486.383 586.966 518.77ZM586.966 154.902C586.966 190.414 579.935 220.811 565.872 246.096C551.668 271.38 531.923 290.769 506.639 304.263C481.213 317.757 451.739 324.505 418.216 324.505C384.693 324.505 355.29 317.757 330.006 304.263C304.58 290.769 284.835 271.38 270.773 246.096C256.568 220.811 249.466 190.414 249.466 154.902C249.466 119.391 256.568 88.9933 270.773 63.7092C284.835 38.4251 304.58 19.0359 330.006 5.54153C355.29 -7.95279 384.693 -14.7 418.216 -14.7C451.739 -14.7 481.213 -7.95279 506.639 5.54153C531.923 19.0359 551.668 38.4251 565.872 63.7092C579.935 88.9933 586.966 119.391 586.966 154.902ZM500.034 154.05C500.034 144.107 496.696 135.513 490.02 128.269C483.344 121.025 473.827 115.414 461.469 111.436C449.111 107.459 434.409 105.471 417.364 105.471C400.176 105.471 385.474 107.459 373.259 111.436C360.901 115.414 351.384 121.025 344.707 128.269C338.031 135.513 334.693 144.107 334.693 154.05C334.693 164.561 338.031 173.581 344.707 181.11C351.384 188.638 360.901 194.391 373.259 198.368C385.474 202.346 400.176 204.334 417.364 204.334C434.409 204.334 449.111 202.346 461.469 198.368C473.827 194.391 483.344 188.638 490.02 181.11C496.696 173.581 500.034 164.561 500.034 154.05Z" fill="#B6A498"/>
<path opacity="0.2" d="M581 5458.77H253.727V5347.12H315.943V5343.71C295.489 5336.89 279.295 5325.25 267.364 5308.77C255.432 5292.29 249.466 5272.69 249.466 5249.96C249.466 5226.95 255.574 5207.13 267.79 5190.52C279.864 5173.9 295.915 5163.88 315.943 5160.47V5157.06C295.915 5151.52 279.864 5139.73 267.79 5121.69C255.574 5103.65 249.466 5082.49 249.466 5058.2C249.466 5026.81 259.551 5001.38 279.722 4981.92C299.892 4962.32 326.739 4952.52 360.261 4952.52H581V5070.13H390.091C375.744 5070.13 364.523 5073.75 356.426 5081C348.187 5088.24 344.068 5097.97 344.068 5110.19C344.068 5122.26 348.187 5131.85 356.426 5138.95C364.523 5145.91 375.744 5149.39 390.091 5149.39H581V5261.89H390.091C375.744 5261.89 364.523 5265.52 356.426 5272.76C348.187 5280 344.068 5289.73 344.068 5301.95C344.068 5310.05 345.915 5317.01 349.608 5322.83C353.301 5328.65 358.628 5333.2 365.588 5336.47C372.406 5339.59 380.574 5341.15 390.091 5341.15H581V5458.77ZM586.966 4737.69C586.966 4772.64 580.29 4802.75 566.938 4828.03C553.443 4853.18 534.125 4872.56 508.983 4886.2C483.699 4899.69 453.443 4906.44 418.216 4906.44C384.409 4906.44 354.864 4899.62 329.58 4885.99C304.295 4872.35 284.622 4853.1 270.56 4828.25C256.497 4803.39 249.466 4774.06 249.466 4740.25C249.466 4715.53 253.301 4693.16 260.972 4673.13C268.642 4653.1 279.793 4635.99 294.423 4621.78C308.912 4607.58 326.526 4596.64 347.264 4588.97C368.003 4581.3 391.369 4577.46 417.364 4577.46H444.636V4869.79H379.864V4685.7C370.489 4685.85 362.25 4688.26 355.148 4692.95C347.903 4697.49 342.293 4703.67 338.315 4711.48C334.196 4719.16 332.136 4727.89 332.136 4737.69C332.136 4747.21 334.196 4755.94 338.315 4763.9C342.293 4771.85 347.832 4778.25 354.935 4783.08C362.037 4787.76 370.347 4790.25 379.864 4790.53H449.75C460.261 4790.53 469.636 4788.33 477.875 4783.93C486.114 4779.52 492.577 4773.2 497.264 4764.96C501.952 4756.73 504.295 4746.78 504.295 4735.14C504.295 4727.04 503.159 4719.65 500.886 4712.98C498.614 4706.16 495.347 4700.33 491.085 4695.5C486.682 4690.68 481.426 4687.12 475.318 4684.85V4577.46C498.045 4581.16 517.79 4589.89 534.551 4603.67C551.17 4617.45 564.097 4635.7 573.33 4658.43C582.42 4681.02 586.966 4707.44 586.966 4737.69ZM253.727 4431.57L355.148 4383.84L253.727 4333.56L253.727 4216.79L417.364 4304.58L581 4212.53V4328.44L477.023 4383.84L581 4437.53V4555.15L417.364 4462.25L253.727 4549.18V4431.57ZM581 4174.98H253.727V4057.37H581V4174.98ZM219.636 4116.17C219.636 4132.08 214.381 4145.72 203.869 4157.08C193.358 4168.44 180.716 4174.13 165.943 4174.13C151.17 4174.13 138.528 4168.44 128.017 4157.08C117.506 4145.72 112.25 4132.08 112.25 4116.17C112.25 4100.12 117.506 4086.48 128.017 4075.26C138.528 4063.9 151.17 4058.22 165.943 4058.22C180.716 4058.22 193.358 4063.9 203.869 4075.26C214.381 4086.48 219.636 4100.12 219.636 4116.17ZM586.966 3839.77C586.966 3875.28 579.935 3905.68 565.872 3930.96C551.668 3956.25 531.923 3975.64 506.639 3989.13C481.213 4002.62 451.739 4009.37 418.216 4009.37C384.693 4009.37 355.29 4002.62 330.006 3989.13C304.58 3975.64 284.835 3956.25 270.773 3930.96C256.568 3905.68 249.466 3875.28 249.466 3839.77C249.466 3807.67 255.29 3779.9 266.938 3756.46C278.443 3732.88 294.778 3714.63 315.943 3701.7C336.966 3688.78 361.682 3682.24 390.091 3682.1V3791.19C372.903 3792.75 359.835 3797.72 350.886 3806.1C341.795 3814.34 337.25 3825 337.25 3838.06C337.25 3848.29 340.233 3857.24 346.199 3864.91C352.023 3872.58 360.901 3878.55 372.832 3882.81C384.622 3887.07 399.466 3889.2 417.364 3889.2C435.261 3889.2 450.176 3887.07 462.108 3882.81C473.898 3878.55 482.776 3872.58 488.741 3864.91C494.565 3857.24 497.477 3848.29 497.477 3838.06C497.477 3829.4 495.489 3821.73 491.511 3815.05C487.392 3808.38 481.426 3802.98 473.614 3798.86C465.659 3794.6 456 3792.04 444.636 3791.19V3682.1C473.472 3682.53 498.614 3689.13 520.063 3701.91C541.369 3714.7 557.847 3732.81 569.494 3756.25C581.142 3779.54 586.966 3807.38 586.966 3839.77ZM586.966 3475.9C586.966 3511.41 579.935 3541.81 565.872 3567.1C551.668 3592.38 531.923 3611.77 506.639 3625.26C481.213 3638.76 451.739 3645.5 418.216 3645.5C384.693 3645.5 355.29 3638.76 330.006 3625.26C304.58 3611.77 284.835 3592.38 270.773 3567.1C256.568 3541.81 249.466 3511.41 249.466 3475.9C249.466 3440.39 256.568 3409.99 270.773 3384.71C284.835 3359.43 304.58 3340.04 330.006 3326.54C355.29 3313.05 384.693 3306.3 418.216 3306.3C451.739 3306.3 481.213 3313.05 506.639 3326.54C531.923 3340.04 551.668 3359.43 565.872 3384.71C579.935 3409.99 586.966 3440.39 586.966 3475.9ZM500.034 3475.05C500.034 3465.11 496.696 3456.51 490.02 3449.27C483.344 3442.02 473.827 3436.41 461.469 3432.44C449.111 3428.46 434.409 3426.47 417.364 3426.47C400.176 3426.47 385.474 3428.46 373.259 3432.44C360.901 3436.41 351.384 3442.02 344.707 3449.27C338.031 3456.51 334.693 3465.11 334.693 3475.05C334.693 3485.56 338.031 3494.58 344.707 3502.11C351.384 3509.64 360.901 3515.39 373.259 3519.37C385.474 3523.35 400.176 3525.33 417.364 3525.33C434.409 3525.33 449.111 3523.35 461.469 3519.37C473.827 3515.39 483.344 3509.64 490.02 3502.11C496.696 3494.58 500.034 3485.56 500.034 3475.05Z" fill="#B6A498"/>
</svg>
