<svg width="384" height="2138" viewBox="0 0 384 2138" fill="none" xmlns="http://www.w3.org/2000/svg">
<path opacity="0.2" d="M469 2137.77H141.727V2026.12H203.943V2022.71C183.489 2015.89 167.295 2004.25 155.364 1987.77C143.432 1971.29 137.466 1951.69 137.466 1928.96C137.466 1905.95 143.574 1886.13 155.79 1869.52C167.864 1852.9 183.915 1842.88 203.943 1839.47V1836.06C183.915 1830.52 167.864 1818.73 155.79 1800.69C143.574 1782.65 137.466 1761.49 137.466 1737.2C137.466 1705.81 147.551 1680.38 167.722 1660.92C187.892 1641.32 214.739 1631.52 248.261 1631.52H469V1749.13H278.091C263.744 1749.13 252.523 1752.75 244.426 1760C236.187 1767.24 232.068 1776.97 232.068 1789.19C232.068 1801.26 236.187 1810.85 244.426 1817.95C252.523 1824.91 263.744 1828.39 278.091 1828.39H469V1940.89H278.091C263.744 1940.89 252.523 1944.52 244.426 1951.76C236.187 1959 232.068 1968.73 232.068 1980.95C232.068 1989.05 233.915 1996.01 237.608 2001.83C241.301 2007.65 246.628 2012.2 253.588 2015.47C260.406 2018.59 268.574 2020.15 278.091 2020.15H469V2137.77ZM474.966 1416.69C474.966 1451.64 468.29 1481.75 454.938 1507.03C441.443 1532.18 422.125 1551.56 396.983 1565.2C371.699 1578.69 341.443 1585.44 306.216 1585.44C272.409 1585.44 242.864 1578.62 217.58 1564.99C192.295 1551.35 172.622 1532.1 158.56 1507.25C144.497 1482.39 137.466 1453.06 137.466 1419.25C137.466 1394.53 141.301 1372.16 148.972 1352.13C156.642 1332.1 167.793 1314.99 182.423 1300.78C196.912 1286.58 214.526 1275.64 235.264 1267.97C256.003 1260.3 279.369 1256.46 305.364 1256.46H332.636V1548.79H267.864V1364.7C258.489 1364.85 250.25 1367.26 243.148 1371.95C235.903 1376.49 230.293 1382.67 226.315 1390.48C222.196 1398.16 220.136 1406.89 220.136 1416.69C220.136 1426.21 222.196 1434.94 226.315 1442.9C230.293 1450.85 235.832 1457.25 242.935 1462.08C250.037 1466.76 258.347 1469.25 267.864 1469.53H337.75C348.261 1469.53 357.636 1467.33 365.875 1462.93C374.114 1458.52 380.577 1452.2 385.264 1443.96C389.952 1435.73 392.295 1425.78 392.295 1414.14C392.295 1406.04 391.159 1398.65 388.886 1391.98C386.614 1385.16 383.347 1379.33 379.085 1374.5C374.682 1369.68 369.426 1366.12 363.318 1363.85V1256.46C386.045 1260.16 405.79 1268.89 422.551 1282.67C439.17 1296.45 452.097 1314.7 461.33 1337.43C470.42 1360.02 474.966 1386.44 474.966 1416.69ZM141.727 1110.57L243.148 1062.84L141.727 1012.56L141.727 895.794L305.364 983.578L469 891.532V1007.44L365.023 1062.84L469 1116.53V1234.15L305.364 1141.25L141.727 1228.18V1110.57ZM469 853.979H141.727V736.365H469V853.979ZM107.636 795.172C107.636 811.081 102.381 824.718 91.8693 836.081C81.358 847.445 68.7159 853.127 53.9432 853.127C39.1705 853.127 26.5284 847.445 16.017 836.081C5.50568 824.718 0.25 811.081 0.25 795.172C0.25 779.121 5.50568 765.485 16.017 754.263C26.5284 742.9 39.1705 737.218 53.9432 737.218C68.7159 737.218 81.358 742.9 91.8693 754.263C102.381 765.485 107.636 779.121 107.636 795.172ZM474.966 518.77C474.966 554.281 467.935 584.679 453.872 609.963C439.668 635.247 419.923 654.636 394.639 668.13C369.213 681.625 339.739 688.372 306.216 688.372C272.693 688.372 243.29 681.625 218.006 668.13C192.58 654.636 172.835 635.247 158.773 609.963C144.568 584.679 137.466 554.281 137.466 518.77C137.466 486.667 143.29 458.897 154.938 435.46C166.443 411.88 182.778 393.627 203.943 380.701C224.966 367.775 249.682 361.241 278.091 361.099V470.19C260.903 471.752 247.835 476.724 238.886 485.105C229.795 493.343 225.25 503.997 225.25 517.065C225.25 527.292 228.233 536.241 234.199 543.912C240.023 551.582 248.901 557.548 260.832 561.809C272.622 566.071 287.466 568.201 305.364 568.201C323.261 568.201 338.176 566.071 350.108 561.809C361.898 557.548 370.776 551.582 376.741 543.912C382.565 536.241 385.477 527.292 385.477 517.065C385.477 508.4 383.489 500.73 379.511 494.054C375.392 487.377 369.426 481.98 361.614 477.86C353.659 473.599 344 471.042 332.636 470.19V361.099C361.472 361.525 386.614 368.13 408.063 380.914C429.369 393.698 445.847 411.809 457.494 435.247C469.142 458.542 474.966 486.383 474.966 518.77ZM474.966 154.902C474.966 190.414 467.935 220.811 453.872 246.096C439.668 271.38 419.923 290.769 394.639 304.263C369.213 317.757 339.739 324.505 306.216 324.505C272.693 324.505 243.29 317.757 218.006 304.263C192.58 290.769 172.835 271.38 158.773 246.096C144.568 220.811 137.466 190.414 137.466 154.902C137.466 119.391 144.568 88.9933 158.773 63.7092C172.835 38.4251 192.58 19.0359 218.006 5.54153C243.29 -7.95279 272.693 -14.7 306.216 -14.7C339.739 -14.7 369.213 -7.95279 394.639 5.54153C419.923 19.0359 439.668 38.4251 453.872 63.7092C467.935 88.9933 474.966 119.391 474.966 154.902ZM388.034 154.05C388.034 144.107 384.696 135.513 378.02 128.269C371.344 121.025 361.827 115.414 349.469 111.436C337.111 107.459 322.409 105.471 305.364 105.471C288.176 105.471 273.474 107.459 261.259 111.436C248.901 115.414 239.384 121.025 232.707 128.269C226.031 135.513 222.693 144.107 222.693 154.05C222.693 164.561 226.031 173.581 232.707 181.11C239.384 188.638 248.901 194.391 261.259 198.368C273.474 202.346 288.176 204.334 305.364 204.334C322.409 204.334 337.111 202.346 349.469 198.368C361.827 194.391 371.344 188.638 378.02 181.11C384.696 173.581 388.034 164.561 388.034 154.05Z" fill="#B6A498"/>
</svg>
