<svg width="217" height="32" viewBox="0 0 217 32" fill="none" xmlns="http://www.w3.org/2000/svg">
<path d="M10.7536 7.46545V14.1897M10.7536 23.3196V18.0446M5.27536 9.90009V17.9866C5.27536 18.0186 5.30132 18.0446 5.33333 18.0446H10.7536M10.7536 18.0446V14.1897M16.2609 6.07422V14.1317C16.2609 14.1638 16.2349 14.1897 16.2029 14.1897H10.7536M2 25.7253C4.90821 23.88 12.5797 21.3371 20 25.9282" stroke="#5A2C1C" stroke-width="3" stroke-linecap="round" stroke-linejoin="round"/>
<path d="M31.4513 9.90909H34.3533L38.2397 19.3949H38.3931L42.2795 9.90909H45.1815V23H42.9059V14.0064H42.7844L39.1665 22.9616H37.4663L33.8484 13.9872H33.7269V23H31.4513V9.90909ZM52.0082 23.1918C51.0238 23.1918 50.1737 22.9872 49.4577 22.5781C48.7461 22.1648 48.1985 21.581 47.815 20.8267C47.4315 20.0682 47.2397 19.1754 47.2397 18.1484C47.2397 17.1385 47.4315 16.2521 47.815 15.4893C48.2028 14.7223 48.744 14.1257 49.4386 13.6996C50.1332 13.2692 50.9492 13.054 51.8867 13.054C52.4918 13.054 53.0629 13.152 53.5998 13.348C54.141 13.5398 54.6183 13.8381 55.0316 14.2429C55.4492 14.6477 55.7773 15.1634 56.016 15.7898C56.2546 16.4119 56.3739 17.1534 56.3739 18.0142V18.7237H48.3263V17.1641H54.1559C54.1516 16.7209 54.0558 16.3267 53.8683 15.9815C53.6808 15.6321 53.4187 15.3572 53.082 15.157C52.7496 14.9567 52.3619 14.8565 51.9187 14.8565C51.4457 14.8565 51.0302 14.9716 50.6722 15.2017C50.3143 15.4276 50.0352 15.7259 49.8349 16.0966C49.6388 16.4631 49.5387 16.8658 49.5344 17.3047V18.6662C49.5344 19.2372 49.6388 19.7273 49.8477 20.1364C50.0565 20.5412 50.3484 20.8523 50.7234 21.0696C51.0984 21.2827 51.5373 21.3892 52.0401 21.3892C52.3768 21.3892 52.6815 21.3423 52.9542 21.2486C53.2269 21.1506 53.4634 21.0078 53.6637 20.8203C53.864 20.6328 54.0153 20.4006 54.1175 20.1236L56.2781 20.3665C56.1417 20.9375 55.8817 21.4361 55.4982 21.8622C55.119 22.2841 54.6332 22.6122 54.0408 22.8466C53.4485 23.0767 52.771 23.1918 52.0082 23.1918ZM60.0126 13.1818L61.9941 16.8061L64.0076 13.1818H66.4558L63.4963 18.0909L66.5069 23H64.0716L61.9941 19.4652L59.9359 23H57.4814L60.4728 18.0909L57.5581 13.1818H60.0126ZM68.2456 23V13.1818H70.5595V23H68.2456ZM69.4089 11.7884C69.0424 11.7884 68.7271 11.6669 68.4629 11.424C68.1987 11.1768 68.0666 10.8807 68.0666 10.5355C68.0666 10.1861 68.1987 9.88991 68.4629 9.64702C68.7271 9.39986 69.0424 9.27628 69.4089 9.27628C69.7797 9.27628 70.095 9.39986 70.3549 9.64702C70.6191 9.88991 70.7512 10.1861 70.7512 10.5355C70.7512 10.8807 70.6191 11.1768 70.3549 11.424C70.095 11.6669 69.7797 11.7884 69.4089 11.7884ZM77.2216 23.1918C76.2415 23.1918 75.3999 22.9766 74.6967 22.5462C73.9979 22.1158 73.4588 21.5213 73.0795 20.7628C72.7045 20 72.517 19.1222 72.517 18.1293C72.517 17.1321 72.7088 16.2521 73.0923 15.4893C73.4759 14.7223 74.017 14.1257 74.7159 13.6996C75.419 13.2692 76.25 13.054 77.2088 13.054C78.0057 13.054 78.7109 13.201 79.3246 13.495C79.9425 13.7848 80.4347 14.196 80.8011 14.7287C81.1676 15.2571 81.3764 15.875 81.4276 16.5824H79.2159C79.1264 16.1094 78.9134 15.7152 78.5767 15.3999C78.2443 15.0803 77.799 14.9205 77.2408 14.9205C76.7678 14.9205 76.3523 15.0483 75.9943 15.304C75.6364 15.5554 75.3572 15.9176 75.157 16.3906C74.9609 16.8636 74.8629 17.4304 74.8629 18.0909C74.8629 18.7599 74.9609 19.3352 75.157 19.8168C75.353 20.294 75.6278 20.6626 75.9815 20.9226C76.3395 21.1783 76.7592 21.3061 77.2408 21.3061C77.5817 21.3061 77.8864 21.2422 78.1548 21.1143C78.4276 20.9822 78.6555 20.7926 78.8388 20.5455C79.022 20.2983 79.1477 19.9979 79.2159 19.6442H81.4276C81.3722 20.3388 81.1676 20.9545 80.8139 21.4915C80.4602 22.0241 79.9787 22.4418 79.3693 22.7443C78.7599 23.0426 78.044 23.1918 77.2216 23.1918ZM87.6103 23.1918C86.6515 23.1918 85.8205 22.9808 85.1174 22.5589C84.4142 22.1371 83.8688 21.5469 83.481 20.7884C83.0975 20.0298 82.9057 19.1435 82.9057 18.1293C82.9057 17.1151 83.0975 16.2266 83.481 15.4638C83.8688 14.701 84.4142 14.1087 85.1174 13.6868C85.8205 13.2649 86.6515 13.054 87.6103 13.054C88.5691 13.054 89.4 13.2649 90.1032 13.6868C90.8063 14.1087 91.3496 14.701 91.7331 15.4638C92.1209 16.2266 92.3148 17.1151 92.3148 18.1293C92.3148 19.1435 92.1209 20.0298 91.7331 20.7884C91.3496 21.5469 90.8063 22.1371 90.1032 22.5589C89.4 22.9808 88.5691 23.1918 87.6103 23.1918ZM87.623 21.3381C88.1429 21.3381 88.5776 21.1953 88.927 20.9098C89.2765 20.62 89.5364 20.2322 89.7069 19.7464C89.8816 19.2607 89.9689 18.7195 89.9689 18.1229C89.9689 17.522 89.8816 16.9787 89.7069 16.4929C89.5364 16.0028 89.2765 15.6129 88.927 15.3232C88.5776 15.0334 88.1429 14.8885 87.623 14.8885C87.0904 14.8885 86.6472 15.0334 86.2935 15.3232C85.9441 15.6129 85.682 16.0028 85.5073 16.4929C85.3368 16.9787 85.2516 17.522 85.2516 18.1229C85.2516 18.7195 85.3368 19.2607 85.5073 19.7464C85.682 20.2322 85.9441 20.62 86.2935 20.9098C86.6472 21.1953 87.0904 21.3381 87.623 21.3381ZM100.597 9.90909L104.004 20.2131H104.138L107.539 9.90909H110.147L105.532 23H102.604L97.9957 9.90909H100.597ZM111.769 23V13.1818H114.083V23H111.769ZM112.932 11.7884C112.566 11.7884 112.251 11.6669 111.986 11.424C111.722 11.1768 111.59 10.8807 111.59 10.5355C111.59 10.1861 111.722 9.88991 111.986 9.64702C112.251 9.39986 112.566 9.27628 112.932 9.27628C113.303 9.27628 113.618 9.39986 113.878 9.64702C114.143 9.88991 114.275 10.1861 114.275 10.5355C114.275 10.8807 114.143 11.1768 113.878 11.424C113.618 11.6669 113.303 11.7884 112.932 11.7884ZM116.462 26.6818V13.1818H118.738V14.8054H118.872C118.991 14.5668 119.16 14.3132 119.377 14.0447C119.594 13.772 119.888 13.5398 120.259 13.348C120.63 13.152 121.103 13.054 121.678 13.054C122.437 13.054 123.121 13.2479 123.73 13.6357C124.344 14.0192 124.83 14.5881 125.188 15.3423C125.55 16.0923 125.731 17.0128 125.731 18.1037C125.731 19.1818 125.554 20.098 125.2 20.8523C124.847 21.6065 124.365 22.1818 123.756 22.5781C123.146 22.9744 122.456 23.1726 121.685 23.1726C121.122 23.1726 120.656 23.0788 120.285 22.8913C119.914 22.7038 119.616 22.478 119.39 22.2138C119.168 21.9453 118.996 21.6918 118.872 21.4531H118.776V26.6818H116.462ZM118.732 18.0909C118.732 18.7259 118.821 19.282 119 19.7592C119.183 20.2365 119.445 20.6094 119.786 20.8778C120.131 21.142 120.549 21.2741 121.039 21.2741C121.55 21.2741 121.979 21.1378 122.324 20.8651C122.669 20.5881 122.929 20.2109 123.104 19.7337C123.283 19.2521 123.372 18.7045 123.372 18.0909C123.372 17.4815 123.285 16.9403 123.11 16.4673C122.935 15.9943 122.675 15.6236 122.33 15.3551C121.985 15.0866 121.555 14.9524 121.039 14.9524C120.545 14.9524 120.125 15.0824 119.78 15.3423C119.435 15.6023 119.173 15.9666 118.994 16.4354C118.819 16.9041 118.732 17.456 118.732 18.0909ZM131.982 26.8864C131.151 26.8864 130.438 26.7734 129.841 26.5476C129.244 26.326 128.765 26.0277 128.403 25.6527C128.04 25.2777 127.789 24.8622 127.648 24.4062L129.732 23.9013C129.826 24.093 129.962 24.2827 130.141 24.4702C130.32 24.6619 130.561 24.8196 130.864 24.9432C131.17 25.071 131.556 25.1349 132.021 25.1349C132.677 25.1349 133.22 24.9751 133.651 24.6555C134.081 24.3402 134.296 23.8203 134.296 23.0959V21.2358H134.181C134.062 21.4744 133.887 21.7195 133.657 21.9709C133.431 22.2223 133.131 22.4332 132.756 22.6037C132.385 22.7741 131.918 22.8594 131.356 22.8594C130.602 22.8594 129.918 22.6825 129.304 22.3288C128.695 21.9709 128.209 21.4382 127.847 20.7308C127.489 20.0192 127.31 19.1286 127.31 18.0589C127.31 16.9808 127.489 16.071 127.847 15.3295C128.209 14.5838 128.697 14.0192 129.31 13.6357C129.924 13.2479 130.608 13.054 131.362 13.054C131.938 13.054 132.411 13.152 132.781 13.348C133.156 13.5398 133.455 13.772 133.676 14.0447C133.898 14.3132 134.066 14.5668 134.181 14.8054H134.309V13.1818H136.591V23.1598C136.591 23.9993 136.391 24.6939 135.99 25.2436C135.589 25.7933 135.042 26.2045 134.347 26.4773C133.653 26.75 132.864 26.8864 131.982 26.8864ZM132.001 21.044C132.491 21.044 132.909 20.9247 133.254 20.6861C133.599 20.4474 133.862 20.1044 134.04 19.657C134.219 19.2095 134.309 18.6726 134.309 18.0462C134.309 17.4283 134.219 16.8871 134.04 16.4226C133.866 15.9581 133.606 15.598 133.261 15.3423C132.92 15.0824 132.5 14.9524 132.001 14.9524C131.486 14.9524 131.055 15.0866 130.71 15.3551C130.365 15.6236 130.105 15.9922 129.93 16.4609C129.756 16.9254 129.668 17.4538 129.668 18.0462C129.668 18.647 129.756 19.1733 129.93 19.625C130.109 20.0724 130.371 20.4219 130.717 20.6733C131.066 20.9205 131.494 21.044 132.001 21.044ZM143.309 23.1918C142.325 23.1918 141.474 22.9872 140.759 22.5781C140.047 22.1648 139.499 21.581 139.116 20.8267C138.732 20.0682 138.54 19.1754 138.54 18.1484C138.54 17.1385 138.732 16.2521 139.116 15.4893C139.504 14.7223 140.045 14.1257 140.739 13.6996C141.434 13.2692 142.25 13.054 143.188 13.054C143.793 13.054 144.364 13.152 144.901 13.348C145.442 13.5398 145.919 13.8381 146.332 14.2429C146.75 14.6477 147.078 15.1634 147.317 15.7898C147.555 16.4119 147.675 17.1534 147.675 18.0142V18.7237H139.627V17.1641H145.457C145.452 16.7209 145.357 16.3267 145.169 15.9815C144.982 15.6321 144.719 15.3572 144.383 15.157C144.05 14.9567 143.663 14.8565 143.219 14.8565C142.746 14.8565 142.331 14.9716 141.973 15.2017C141.615 15.4276 141.336 15.7259 141.136 16.0966C140.94 16.4631 140.839 16.8658 140.835 17.3047V18.6662C140.835 19.2372 140.94 19.7273 141.148 20.1364C141.357 20.5412 141.649 20.8523 142.024 21.0696C142.399 21.2827 142.838 21.3892 143.341 21.3892C143.678 21.3892 143.982 21.3423 144.255 21.2486C144.528 21.1506 144.764 21.0078 144.964 20.8203C145.165 20.6328 145.316 20.4006 145.418 20.1236L147.579 20.3665C147.442 20.9375 147.183 21.4361 146.799 21.8622C146.42 22.2841 145.934 22.6122 145.342 22.8466C144.749 23.0767 144.072 23.1918 143.309 23.1918ZM154.535 13.1818V14.9716H148.891V13.1818H154.535ZM150.284 10.8295H152.598V20.0469C152.598 20.358 152.645 20.5966 152.739 20.7628C152.837 20.9247 152.965 21.0355 153.122 21.0952C153.28 21.1548 153.455 21.1847 153.646 21.1847C153.791 21.1847 153.923 21.174 154.043 21.1527C154.166 21.1314 154.26 21.1122 154.324 21.0952L154.714 22.9041C154.59 22.9467 154.414 22.9936 154.183 23.0447C153.958 23.0959 153.681 23.1257 153.352 23.1342C152.773 23.1513 152.251 23.0639 151.786 22.8722C151.322 22.6761 150.953 22.3736 150.681 21.9645C150.412 21.5554 150.28 21.044 150.284 20.4304V10.8295ZM162.718 23H160.187L164.796 9.90909H167.723L172.338 23H169.807L166.311 12.5938H166.208L162.718 23ZM162.801 17.8672H169.705V19.772H162.801V17.8672ZM174.756 23L171.982 13.1818H174.341L176.067 20.0852H176.156L177.92 13.1818H180.253L182.018 20.0469H182.113L183.814 13.1818H186.179L183.398 23H180.988L179.148 16.3651H179.013L177.172 23H174.756ZM190.62 23.1982C189.998 23.1982 189.437 23.0874 188.939 22.8658C188.444 22.6399 188.052 22.3075 187.762 21.8686C187.477 21.4297 187.334 20.8885 187.334 20.245C187.334 19.6911 187.436 19.233 187.641 18.8707C187.846 18.5085 188.125 18.2188 188.478 18.0014C188.832 17.7841 189.23 17.62 189.674 17.5092C190.121 17.3942 190.583 17.3111 191.061 17.2599C191.636 17.2003 192.103 17.147 192.461 17.1001C192.819 17.049 193.078 16.9723 193.24 16.87C193.407 16.7635 193.49 16.5994 193.49 16.3778V16.3395C193.49 15.858 193.347 15.4851 193.061 15.2209C192.776 14.9567 192.365 14.8246 191.828 14.8246C191.261 14.8246 190.811 14.9482 190.479 15.1953C190.151 15.4425 189.929 15.7344 189.814 16.071L187.654 15.7642C187.824 15.1676 188.105 14.669 188.498 14.2685C188.89 13.8636 189.369 13.5611 189.936 13.3608C190.502 13.1562 191.129 13.054 191.815 13.054C192.288 13.054 192.759 13.1094 193.228 13.2202C193.696 13.331 194.125 13.5142 194.512 13.7699C194.9 14.0213 195.211 14.3643 195.446 14.799C195.684 15.2337 195.804 15.777 195.804 16.429V23H193.579V21.6513H193.502C193.362 21.924 193.164 22.1797 192.908 22.4183C192.657 22.6527 192.339 22.8423 191.956 22.9872C191.576 23.1278 191.131 23.1982 190.62 23.1982ZM191.221 21.4979C191.685 21.4979 192.088 21.4062 192.429 21.223C192.77 21.0355 193.032 20.7884 193.215 20.4815C193.402 20.1747 193.496 19.8402 193.496 19.478V18.321C193.424 18.3807 193.3 18.4361 193.125 18.4872C192.955 18.5384 192.763 18.5831 192.55 18.6214C192.337 18.6598 192.126 18.6939 191.917 18.7237C191.708 18.7536 191.527 18.7791 191.374 18.8004C191.029 18.8473 190.72 18.924 190.447 19.0305C190.174 19.1371 189.959 19.2862 189.801 19.478C189.644 19.6655 189.565 19.9084 189.565 20.2067C189.565 20.6328 189.721 20.9545 190.032 21.1719C190.343 21.3892 190.739 21.4979 191.221 21.4979ZM199.217 26.6818C198.902 26.6818 198.61 26.6563 198.341 26.6051C198.077 26.5582 197.866 26.5028 197.708 26.4389L198.245 24.6364C198.582 24.7344 198.882 24.7813 199.147 24.777C199.411 24.7727 199.643 24.6896 199.843 24.5277C200.048 24.37 200.221 24.1058 200.361 23.7351L200.559 23.2045L196.999 13.1818H199.453L201.716 20.5966H201.819L204.088 13.1818H206.549L202.618 24.1889C202.434 24.7088 202.191 25.1541 201.889 25.5249C201.586 25.8999 201.216 26.1854 200.777 26.3814C200.342 26.5817 199.822 26.6818 199.217 26.6818ZM215.91 15.777L213.8 16.0071C213.741 15.794 213.636 15.5938 213.487 15.4062C213.342 15.2188 213.146 15.0675 212.899 14.9524C212.652 14.8374 212.349 14.7798 211.991 14.7798C211.51 14.7798 211.105 14.8842 210.777 15.093C210.453 15.3018 210.293 15.5724 210.298 15.9048C210.293 16.1903 210.398 16.4226 210.611 16.6016C210.828 16.7805 211.186 16.9276 211.685 17.0426L213.359 17.4006C214.288 17.6009 214.979 17.9183 215.43 18.353C215.886 18.7876 216.116 19.3565 216.121 20.0597C216.116 20.6776 215.935 21.223 215.577 21.696C215.224 22.1648 214.732 22.5312 214.101 22.7955C213.47 23.0597 212.746 23.1918 211.928 23.1918C210.726 23.1918 209.759 22.9403 209.026 22.4375C208.293 21.9304 207.856 21.2251 207.715 20.3217L209.972 20.1044C210.074 20.5476 210.291 20.8821 210.624 21.108C210.956 21.3338 211.388 21.4467 211.921 21.4467C212.471 21.4467 212.912 21.3338 213.244 21.108C213.581 20.8821 213.749 20.603 213.749 20.2706C213.749 19.9893 213.641 19.7571 213.423 19.5739C213.21 19.3906 212.878 19.25 212.426 19.152L210.751 18.8004C209.81 18.6044 209.113 18.2741 208.661 17.8097C208.21 17.3409 207.986 16.7486 207.99 16.0327C207.986 15.4276 208.15 14.9034 208.482 14.4602C208.819 14.0128 209.286 13.6676 209.882 13.4247C210.483 13.1776 211.175 13.054 211.96 13.054C213.11 13.054 214.016 13.299 214.676 13.7891C215.341 14.2791 215.752 14.9418 215.91 15.777Z" fill="#5A2C1C"/>
</svg>
